<svg width="30" height="30" version="1">
  <title>Critically Endangered</title>
  <path d="M30 15c0 8.284-6.716 15-15 15-8.284 0-15-6.716-15-15C0 6.716 6.716 0 15 0c8.284 0 15 6.716 15 15z" style="marker:none" fill="#c33" overflow="visible"/>
  <path d="M11.908 16.556l2.038.627c-.313 1.103-.832 1.923-1.559 2.458-.726.536-1.648.803-2.765.803-1.382 0-2.518-.458-3.408-1.375-.89-.917-1.334-2.17-1.334-3.761 0-1.683.447-2.99 1.341-3.92.895-.931 2.071-1.396 3.529-1.396 1.273 0 2.307.365 3.102 1.096.474.432.829 1.053 1.065 1.862l-2.08.482c-.123-.524-.38-.938-.77-1.24-.39-.304-.865-.456-1.424-.456-.771 0-1.397.269-1.877.807s-.721 1.409-.721 2.613c0 1.278.237 2.188.71 2.73.473.543 1.089.814 1.846.814.558 0 1.039-.172 1.441-.517.402-.345.691-.887.866-1.627zm3.855 3.716V10.164h4.423c1.113 0 1.92.09 2.425.272.504.182.907.505 1.21.969.303.464.455.995.455 1.593 0 .758-.23 1.385-.689 1.879-.46.494-1.145.805-2.059.934.454.257.83.54 1.125.848.296.308.695.855 1.197 1.641l1.27 1.972h-2.513l-1.52-2.2c-.539-.786-.908-1.28-1.107-1.485a1.616 1.616 0 0 0-.631-.421c-.223-.076-.576-.114-1.058-.114h-.426v4.22h-2.102zm2.102-5.833h1.555c1.008 0 1.637-.042 1.888-.124a1.13 1.13 0 0 0 .59-.428c.141-.202.212-.455.212-.758 0-.34-.093-.615-.28-.824-.187-.21-.451-.341-.792-.397-.17-.023-.681-.034-1.533-.034h-1.64v2.565z" style="text-align:center;line-height:125%" font-size="11.874" font-weight="700" text-anchor="middle" fill="#fff" font-family="FreeSans"/>
</svg>
