<svg width="30" height="30" version="1" title="Vulnerable">
  <title>Vulnerable</title>
  <path d="M30 15c0 8.284-6.716 15-15 15-8.284 0-15-6.716-15-15C0 6.716 6.716 0 15 0c8.284 0 15 6.716 15 15z" style="marker:none" fill="#c90" overflow="visible"/>
  <path d="M9.19 20.272L5.468 10.164h2.279l2.634 7.481 2.549-7.481h2.229l-3.727 10.108H9.189zm7.042-10.108h2.101v5.475c0 .868.026 1.431.078 1.689.09.414.305.746.643.996s.801.376 1.388.376c.596 0 1.046-.118 1.349-.355.303-.237.485-.528.546-.872.062-.345.093-.917.093-1.717v-5.592h2.101v5.31c0 1.213-.057 2.07-.17 2.57a2.814 2.814 0 0 1-.628 1.27c-.306.344-.714.619-1.225.824-.511.204-1.179.306-2.002.306-.994 0-1.748-.111-2.261-.334-.514-.223-.92-.513-1.218-.869a2.756 2.756 0 0 1-.59-1.12c-.137-.58-.205-1.434-.205-2.565v-5.392z" style="text-align:center;line-height:125%" font-size="11.874" font-weight="700" text-anchor="middle" fill="#fff" font-family="FreeSans"/>
</svg>
